grf
version=1
nRows=57
nColumns=19
inDegrees=yes
endheader
time	ground_force_1_vx	ground_force_1_vy	ground_force_1_vz	ground_force_1_px	ground_force_1_py	ground_force_1_pz	ground_moment_1_mx	ground_moment_1_my	ground_moment_1_mz	ground_force_2_vx	ground_force_2_vy	ground_force_2_vz	ground_force_2_px	ground_force_2_py	ground_force_2_pz	ground_moment_2_mx	ground_moment_2_my	ground_moment_2_mz
5.190000	1.073596	1573.017977	-613.705373	0.180133	0.000000	-0.803492	-0.000000	-3.118457	0.000000	-32.413642	1579.475534	597.221497	0.208668	0.000000	-1.603101	-0.000000	-10.029607	-0.000000
5.191000	1.244773	1573.342579	-613.362273	0.180053	0.000000	-0.803390	-0.000000	-3.081748	0.000000	-32.365144	1579.638865	597.315024	0.208404	0.000000	-1.600635	-0.000000	-10.027442	-0.000000
5.192000	1.432033	1573.661052	-613.014831	0.180401	0.000000	-0.804185	-0.000000	-3.044359	0.000000	-32.342982	1579.796234	597.417075	0.208303	0.000000	-1.601970	-0.000000	-10.024715	-0.000000
5.193000	1.634251	1573.972111	-612.666603	0.179687	0.000000	-0.803743	-0.000000	-3.006383	0.000000	-32.347180	1579.947610	597.527057	0.208683	0.000000	-1.602451	-0.000000	-10.021586	-0.000000
5.194000	1.850131	1574.274436	-612.321402	0.179561	0.000000	-0.803726	-0.000000	-2.967917	0.000000	-32.377477	1580.094186	597.644469	0.209475	0.000000	-1.602680	-0.000000	-10.018172	-0.000000
5.195000	2.078228	1574.566889	-611.983135	0.179956	0.000000	-0.802279	-0.000000	-2.929061	0.000000	-32.433427	1580.238492	597.768985	0.208623	0.000000	-1.601702	-0.000000	-10.014553	-0.000000
5.196000	2.316974	1574.848592	-611.655552	0.180209	0.000000	-0.803741	-0.000000	-2.889930	0.000000	-32.514529	1580.384043	597.900400	0.208754	0.000000	-1.601910	-0.000000	-10.010780	-0.000000
5.197000	2.564737	1575.119034	-611.342156	0.179982	0.000000	-0.804225	-0.000000	-2.850673	0.000000	-32.620266	1580.534598	598.038559	0.208792	0.000000	-1.601655	-0.000000	-10.006902	-0.000000
5.198000	2.819886	1575.378015	-611.046171	0.179617	0.000000	-0.804220	-0.000000	-2.811482	0.000000	-32.750141	1580.693516	598.183346	0.209261	0.000000	-1.602079	-0.000000	-10.002974	-0.000000
5.199000	3.080837	1575.625430	-610.770487	0.179888	0.000000	-0.806608	-0.000000	-2.772600	0.000000	-32.903714	1580.863409	598.334701	0.208841	0.000000	-1.601763	-0.000000	-9.999038	-0.000000
5.200000	3.346076	1575.861180	-610.517656	0.179423	0.000000	-0.803298	-0.000000	-2.734299	-0.000000	-33.080588	1581.045956	598.492660	0.208678	0.000000	-1.601742	-0.000000	-9.995105	-0.000000
5.201000	3.614164	1576.085242	-610.289920	0.179034	0.000000	-0.803709	-0.000000	-2.696874	-0.000000	-33.280392	1581.241878	598.657383	0.208842	0.000000	-1.601574	-0.000000	-9.991173	-0.000000
5.202000	3.883734	1576.298142	-610.089146	0.179218	0.000000	-0.804487	-0.000000	-2.660628	-0.000000	-33.502782	1581.451144	598.829150	0.209082	0.000000	-1.601761	-0.000000	-9.987245	-0.000000
5.203000	4.153479	1576.501391	-609.916820	0.178828	0.000000	-0.803697	-0.000000	-2.625840	-0.000000	-33.747436	1581.673611	599.008378	0.209004	0.000000	-1.601804	-0.000000	-9.983349	-0.000000
5.204000	4.422147	1576.696998	-609.774146	0.179593	0.000000	-0.804792	-0.000000	-2.592758	-0.000000	-34.014028	1581.909747	599.195627	0.209190	0.000000	-1.601702	-0.000000	-9.979526	-0.000000
5.205000	4.688574	1576.886755	-609.662102	0.179048	0.000000	-0.803477	-0.000000	-2.561604	-0.000000	-34.302210	1582.160632	599.391535	0.209048	0.000000	-1.601989	-0.000000	-9.975824	-0.000000
5.206000	4.951687	1577.071987	-609.581461	0.178951	0.000000	-0.804052	-0.000000	-2.532580	-0.000000	-34.611608	1582.427602	599.596711	0.209348	0.000000	-1.603169	-0.000000	-9.972300	-0.000000
5.207000	5.210477	1577.253394	-609.532834	0.178638	0.000000	-0.803045	-0.000000	-2.505872	-0.000000	-34.941786	1582.712251	599.811671	0.209498	0.000000	-1.601856	-0.000000	-9.969021	-0.000000
5.208000	5.463907	1577.430867	-609.516719	0.178846	0.000000	-0.804283	-0.000000	-2.481618	-0.000000	-35.292227	1583.016476	600.036829	0.209603	0.000000	-1.602024	-0.000000	-9.966064	-0.000000
5.209000	5.710837	1577.603576	-609.533456	0.178761	0.000000	-0.804519	-0.000000	-2.459896	-0.000000	-35.662389	1583.342238	600.272436	0.209851	0.000000	-1.602639	-0.000000	-9.963509	-0.000000
5.210000	5.949998	1577.770480	-609.583217	0.179174	0.000000	-0.804704	-0.000000	-2.440742	-0.000000	-36.051756	1583.691363	600.518565	0.209960	0.000000	-1.602652	-0.000000	-9.961440	-0.000000
5.211000	6.180012	1577.930919	-609.666072	0.178929	0.000000	-0.804394	-0.000000	-2.424176	-0.000000	-36.459777	1584.065472	600.775188	0.210550	0.000000	-1.602687	-0.000000	-9.959923	-0.000000
5.212000	6.399444	1578.084771	-609.782024	0.179239	0.000000	-0.803979	-0.000000	-2.410243	0.000000	-36.885809	1584.465796	601.042218	0.209883	0.000000	-1.602289	-0.000000	-9.958983	-0.000000
5.213000	6.606843	1578.232413	-609.930987	0.178895	0.000000	-0.804619	-0.000000	-2.399016	0.000000	-37.329118	1584.893022	601.319486	0.210334	0.000000	-1.602955	-0.000000	-9.958601	-0.000000
5.214000	6.800740	1578.374764	-610.112778	0.178402	0.000000	-0.802609	-0.000000	-2.390573	0.000000	-37.788878	1585.347295	601.606750	0.210776	0.000000	-1.604118	-0.000000	-9.958743	-0.000000
5.215000	6.979638	1578.512930	-610.327100	0.179177	0.000000	-0.804161	0.000000	-2.384958	0.000000	-38.264129	1585.828061	601.903735	0.210104	0.000000	-1.602346	-0.000000	-9.959370	-0.000000
5.216000	7.142062	1578.647521	-610.573513	0.178977	0.000000	-0.804104	0.000000	-2.382162	0.000000	-38.753768	1586.334094	602.210128	0.210141	0.000000	-1.602640	-0.000000	-9.960457	-0.000000
5.217000	7.286668	1578.778548	-610.851415	0.179102	0.000000	-0.803770	0.000000	-2.382131	0.000000	-39.256509	1586.863984	602.525519	0.210235	0.000000	-1.602550	-0.000000	-9.962014	-0.000000
5.218000	7.412352	1578.905854	-611.160021	0.179274	0.000000	-0.804036	0.000000	-2.384786	0.000000	-39.770873	1587.416618	602.849320	0.210330	0.000000	-1.603027	-0.000000	-9.964101	-0.000000
5.219000	7.518267	1579.029263	-611.498305	0.179256	0.000000	-0.803932	0.000000	-2.390040	0.000000	-40.295189	1587.991356	603.180706	0.210249	0.000000	-1.602044	-0.000000	-9.966827	-0.000000
5.220000	7.603785	1579.148554	-611.864979	0.179048	0.000000	-0.804010	0.000000	-2.397808	0.000000	-40.827586	1588.587619	603.518625	0.211032	0.000000	-1.603996	0.000000	-9.970347	-0.000000
5.221000	7.668470	1579.263443	-612.258567	0.179117	0.000000	-0.803750	0.000000	-2.407994	0.000000	-41.365978	1589.204206	603.861837	0.210929	0.000000	-1.602704	0.000000	-9.974837	-0.000000
5.222000	7.712078	1579.373520	-612.677488	0.178692	0.000000	-0.804379	0.000000	-2.420473	0.000000	-41.908095	1589.839032	604.208925	0.210516	0.000000	-1.603629	0.000000	-9.980472	-0.000000
5.223000	7.734568	1579.478372	-613.120029	0.178723	0.000000	-0.803235	0.000000	-2.435087	0.000000	-42.451477	1590.489260	604.558304	0.211561	0.000000	-1.603564	0.000000	-9.987439	-0.000000
5.224000	7.736093	1579.577797	-613.584223	0.179568	0.000000	-0.805320	0.000000	-2.451642	0.000000	-42.993404	1591.151548	604.908243	0.211374	0.000000	-1.602754	0.000000	-9.995940	-0.000000
5.225000	7.716985	1579.671606	-614.067742	0.179164	0.000000	-0.803845	0.000000	-2.469908	0.000000	-43.530915	1591.822332	605.256914	0.211465	0.000000	-1.602955	0.000000	-10.006155	-0.000000
5.226000	7.677756	1579.759310	-614.567923	0.180062	0.000000	-0.802795	0.000000	-2.489647	0.000000	-44.060919	1592.497930	605.602402	0.211712	0.000000	-1.603317	0.000000	-10.018208	-0.000000
5.227000	7.619099	1579.840447	-615.081858	0.179366	0.000000	-0.803714	0.000000	-2.510642	0.000000	-44.580268	1593.174657	605.942648	0.211270	0.000000	-1.603217	0.000000	-10.032150	-0.000000
5.228000	7.541861	1579.915198	-615.606412	0.179800	0.000000	-0.801653	0.000000	-2.532722	0.000000	-45.085772	1593.849100	606.275401	0.211553	0.000000	-1.603111	0.000000	-10.047970	-0.000000
5.229000	7.446959	1579.984352	-616.138229	0.179631	0.000000	-0.803816	0.000000	-2.555740	0.000000	-45.574234	1594.518347	606.598303	0.211724	0.000000	-1.603376	0.000000	-10.065619	-0.000000
5.230000	7.335304	1580.048940	-616.673873	0.179951	0.000000	-0.803098	0.000000	-2.579540	0.000000	-46.042513	1595.180219	606.909016	0.211801	0.000000	-1.603221	0.000000	-10.085030	-0.000000
5.231000	7.207767	1580.110147	-617.209967	0.180076	0.000000	-0.802772	0.000000	-2.603943	0.000000	-46.487551	1595.833380	607.205284	0.211900	0.000000	-1.604129	0.000000	-10.106117	-0.000000
5.232000	7.065181	1580.169367	-617.743197	0.179921	0.000000	-0.801720	0.000000	-2.628760	0.000000	-46.906380	1596.476853	607.484945	0.211850	0.000000	-1.603146	0.000000	-10.128781	-0.000000
5.233000	6.908331	1580.228304	-618.270320	0.181068	0.000000	-0.803084	0.000000	-2.653787	0.000000	-47.296137	1597.109208	607.745938	0.212103	0.000000	-1.603204	0.000000	-10.152910	-0.000000
5.234000	6.737876	1580.289156	-618.788272	0.180744	0.000000	-0.802471	0.000000	-2.678811	0.000000	-47.654079	1597.728383	607.986326	0.212056	0.000000	-1.603043	0.000000	-10.178377	-0.000000
5.235000	6.554301	1580.354750	-619.294263	0.180839	0.000000	-0.803363	0.000000	-2.703627	0.000000	-47.977636	1598.331931	608.204348	0.211115	0.000000	-1.602641	0.000000	-10.205043	-0.000000
5.236000	6.357926	1580.428564	-619.785787	0.180671	0.000000	-0.802511	0.000000	-2.728057	0.000000	-48.264504	1598.916501	608.398445	0.212447	0.000000	-1.604964	0.000000	-10.232786	-0.000000
5.237000	6.148916	1580.514549	-620.260598	0.180879	0.000000	-0.802206	0.000000	-2.751925	0.000000	-48.512730	1599.476979	608.567316	0.211705	0.000000	-1.603933	0.000000	-10.261519	-0.000000
5.238000	5.927278	1580.616451	-620.716776	0.181972	0.000000	-0.800291	0.000000	-2.775061	0.000000	-48.720636	1600.007189	608.710085	0.212939	0.000000	-1.603641	0.000000	-10.291152	-0.000000
5.239000	5.692942	1580.736813	-621.152937	0.181135	0.000000	-0.801602	0.000000	-2.797353	0.000000	-48.886687	1600.501719	608.826369	0.212350	0.000000	-1.603501	0.000000	-10.321542	-0.000000
5.240000	5.445913	1580.876516	-621.568465	0.181743	0.000000	-0.801583	0.000000	-2.818796	0.000000	-49.009480	1600.956656	608.916144	0.212130	0.000000	-1.602706	0.000000	-10.352495	-0.000000
5.241000	5.186348	1581.035155	-621.963524	0.181265	0.000000	-0.801904	0.000000	-2.839487	0.000000	-49.087839	1601.369105	608.979588	0.211355	0.000000	-1.603995	0.000000	-10.383807	-0.000000
5.242000	4.914479	1581.211523	-622.338783	0.181757	0.000000	-0.801286	0.000000	-2.859563	0.000000	-49.120878	1601.736608	609.017031	0.212276	0.000000	-1.603056	0.000000	-10.415306	-0.000000
5.243000	4.630512	1581.403726	-622.695140	0.181199	0.000000	-0.800684	0.000000	-2.879153	0.000000	-49.108062	1602.056710	609.028930	0.212207	0.000000	-1.603753	0.000000	-10.446867	-0.000000
5.244000	4.334672	1581.609064	-623.033613	0.181603	0.000000	-0.801251	0.000000	-2.898365	0.000000	-49.049223	1602.326740	609.015850	0.211926	0.000000	-1.603707	0.000000	-10.478399	-0.000000
5.245000	4.027313	1581.824078	-623.355334	0.182056	0.000000	-0.802117	0.000000	-2.917278	0.000000	-48.944520	1602.543927	608.978458	0.212491	0.000000	-1.602877	0.000000	-10.509824	-0.000000
5.246000	3.709010	1582.045000	-623.661500	0.182230	0.000000	-0.801973	0.000000	-2.935954	0.000000	-48.794401	1602.705517	608.917509	0.211888	0.000000	-1.603429	0.000000	-10.541071	-0.000000
